<svg width="80" height="80" viewBox="0 0 80 80" fill="none" xmlns="http://www.w3.org/2000/svg">
<path d="M40.5 4C50.1804 4 59.4643 7.84553 66.3094 14.6906C73.1545 21.5357 77 30.8196 77 40.5C77 50.1804 73.1545 59.4643 66.3094 66.3094C59.4643 73.1545 50.1804 77 40.5 77C30.8196 77 21.5357 73.1545 14.6906 66.3094C7.84553 59.4643 4 50.1804 4 40.5C4 30.8196 7.84553 21.5357 14.6906 14.6906C21.5357 7.84553 30.8196 4 40.5 4ZM40.5 8.5625C36.3059 8.5625 32.1529 9.38859 28.278 10.9936C24.4032 12.5986 20.8824 14.9511 17.9168 17.9168C14.9511 20.8824 12.5986 24.4032 10.9936 28.278C9.38859 32.1529 8.5625 36.3059 8.5625 40.5C8.5625 44.6941 9.38859 48.8471 10.9936 52.722C12.5986 56.5968 14.9511 60.1175 17.9168 63.0832C20.8824 66.0489 24.4032 68.4014 28.278 70.0064C32.1529 71.6114 36.3059 72.4375 40.5 72.4375C48.9704 72.4375 57.0938 69.0727 63.0832 63.0832C69.0727 57.0938 72.4375 48.9704 72.4375 40.5C72.4375 32.0296 69.0727 23.9062 63.0832 17.9168C57.0938 11.9273 48.9704 8.5625 40.5 8.5625ZM40.5 51.9062C41.4075 51.9062 42.2779 52.2668 42.9196 52.9085C43.5614 53.5502 43.9219 54.4206 43.9219 55.3281C43.9219 56.2357 43.5614 57.106 42.9196 57.7478C42.2779 58.3895 41.4075 58.75 40.5 58.75C39.5925 58.75 38.7221 58.3895 38.0804 57.7478C37.4386 57.106 37.0781 56.2357 37.0781 55.3281C37.0781 54.4206 37.4386 53.5502 38.0804 52.9085C38.7221 52.2668 39.5925 51.9062 40.5 51.9062ZM40.5 22.25C41.0339 22.2498 41.551 22.4369 41.9612 22.7787C42.3714 23.1206 42.6486 23.5954 42.7447 24.1206L42.7812 24.5312V45.0625C42.7823 45.6326 42.5699 46.1824 42.1858 46.6036C41.8017 47.0249 41.2739 47.2871 40.7061 47.3386C40.1384 47.3901 39.5719 47.2272 39.1183 46.8819C38.6647 46.5367 38.3568 46.0341 38.2553 45.4731L38.2188 45.0625V24.5312C38.2188 23.9262 38.4591 23.346 38.8869 22.9182C39.3147 22.4903 39.895 22.25 40.5 22.25Z" fill="#D92519"/>
</svg>
