<svg width="500" height="340" viewBox="0 0 500 340" fill="none" xmlns="http://www.w3.org/2000/svg">
<path opacity="0.0714286" d="M299.78 491.57C329.988 462.796 404.875 439.398 403.976 415.858C415.038 390.741 470.56 333.46 486.502 315.791C506.429 293.706 417.298 128.705 350.356 106.761C276.741 82.629 249.332 130.477 201.505 116.345C153.678 102.213 73.9251 156.453 21.8265 186.056C-34.9986 206.548 -111.042 305.725 -66.4628 393.815" stroke="#82D0FF"/>
<path opacity="0.142857" d="M282.84 491.552C315.096 464.923 391.594 446.661 392.398 423.15C405.262 398.874 464.864 345.554 482.066 329.027C503.568 308.369 426.45 137.993 361.164 111.623C289.369 82.6227 258.532 128.441 211.777 111.14C165.021 93.8396 81.4323 142.499 27.2496 168.478C-30.9965 185.062 -114.126 278.736 -75.9567 369.492" stroke="#82D0FF"/>
<path opacity="0.214286" d="M265.488 490.612C299.634 466.258 377.372 453.221 379.872 429.854C394.478 406.538 457.869 357.437 476.247 342.133C499.219 323.002 434.491 148.082 371.178 117.414C301.553 83.6872 267.438 127.252 221.981 106.867C176.524 86.4825 89.5079 129.323 33.505 151.552C-25.8782 164.148 -114.755 253.363 -83.1826 346.344" stroke="#82D0FF"/>
<path opacity="0.285714" d="M247.79 488.726C283.66 466.767 362.258 459.017 366.444 435.908C382.719 413.665 449.591 369.024 469.055 355.016C493.385 337.507 441.362 158.895 380.331 124.078C313.215 85.7887 275.989 126.888 232.052 103.519C188.115 80.1487 98.095 116.962 40.5449 135.332C-19.6863 143.879 -113.005 231.592 -88.1825 326.344" stroke="#82D0FF"/>
<path opacity="0.357143" d="M229.815 485.875C267.233 466.416 346.309 463.993 352.161 441.254C370.025 420.193 440.053 380.228 460.508 367.586C486.078 351.783 447.012 170.349 388.561 131.552C324.282 88.8876 284.125 127.322 241.923 101.081C199.72 74.8398 107.134 105.447 48.3172 119.869C-12.4685 124.325 -109.633 210.282 -91.6825 306.344" stroke="#82D0FF"/>
<path opacity="0.428571" d="M211.632 482.044C250.418 465.181 329.586 468.094 337.074 445.837C356.441 426.06 429.283 390.967 450.63 379.751C477.315 365.732 451.398 182.36 395.81 139.773C334.681 92.9402 291.789 128.522 251.527 99.5373C211.264 70.5531 116.564 94.8045 56.7667 105.208C-4.27732 105.551 -104.675 191.44 -93.6826 288.344" stroke="#82D0FF"/>
<path opacity="0.5" d="M193.314 477.222C233.277 463.037 312.152 471.274 321.24 449.606C342.016 431.21 417.317 401.159 439.452 391.425C467.121 379.257 454.479 194.84 402.027 148.671C344.344 97.8981 298.927 130.453 260.801 98.867C222.674 67.2807 126.321 85.0584 65.8346 91.393C4.82973 87.6215 -98.1623 166.07 -94.1826 263.344" stroke="#82D0FF"/>
<path opacity="0.571429" d="M174.931 471.404C215.877 459.966 294.075 473.486 304.719 452.513C326.802 435.587 404.195 410.726 427.01 402.52C455.53 392.263 456.224 207.7 407.162 158.173C353.208 103.708 305.486 133.078 269.681 99.0437C233.877 65.0092 136.34 76.2265 75.4592 78.4613C14.7906 70.5936 -90.1306 143.674 -93.1826 240.844" stroke="#82D0FF"/>
<path opacity="0.642857" d="M156.556 464.589C198.286 455.954 275.425 474.691 287.573 454.516C310.855 439.143 389.964 419.591 413.348 412.954C442.579 404.658 456.606 220.848 411.173 168.204C361.21 110.312 311.417 136.355 278.108 100.038C244.8 63.7212 146.555 68.3235 85.5762 66.4475C25.5394 54.522 -80.1138 120.251 -90.1826 216.844" stroke="#82D0FF"/>
<path opacity="0.714286" d="M138.261 456.782C180.571 450.992 256.275 474.855 269.868 455.576C294.237 441.83 374.675 427.684 398.514 422.648C428.314 416.353 455.606 234.191 414.023 178.688C368.295 117.651 316.672 140.238 286.023 101.816C255.373 63.3941 156.898 61.3589 96.1186 55.3813C37.0062 39.4561 -66.646 90.7993 -83.6826 186.344" stroke="#82D0FF"/>
<path opacity="0.785714" d="M120.117 447.993C162.801 445.075 236.702 473.948 251.673 455.659C277.01 443.608 358.386 434.935 382.564 431.525C412.787 427.262 453.211 247.636 415.682 189.543C374.411 125.658 321.21 144.681 293.368 104.341C265.526 64.0004 167.301 55.3377 107.018 45.2875C49.1175 25.4402 -53.2613 68.3127 -77.1826 162.344" stroke="#82D0FF"/>
<path opacity="0.857143" d="M102.195 438.234C145.045 438.203 216.783 471.946 233.06 454.735C259.241 444.437 341.158 441.281 365.557 439.513C396.057 437.302 449.415 261.088 416.122 200.688C379.51 134.267 324.99 149.633 300.092 107.571C275.193 65.5084 177.697 50.2604 118.202 36.1867C61.7968 12.5139 -38.493 46.7843 -69.1825 138.844" stroke="#82D0FF"/>
<path opacity="0.928571" d="M84.5648 427.524C127.372 430.381 196.597 468.828 214.101 452.78C240.998 444.286 323.058 446.661 347.559 446.544C378.186 446.397 444.219 274.452 415.325 212.041C383.55 143.407 327.977 155.04 306.143 111.461C284.31 67.8819 188.017 46.1228 129.601 28.0941C74.9649 0.711317 -24.8743 31.7044 -62.1825 121.344" stroke="#82D0FF"/>
<path d="M67.2951 415.888C109.851 421.618 176.227 464.583 194.871 449.775C222.354 443.126 304.156 451.022 328.641 452.556C359.246 454.473 437.632 287.635 413.277 223.515C386.493 153.003 330.138 160.847 311.476 115.964C292.813 71.0804 198.193 42.9162 141.141 21.0204C88.5401 -9.93908 2.06257 -1.43852 -41.6826 85.3442" stroke="#82D0FF"/>
</svg>
