<svg width="599" height="362" viewBox="0 0 599 362" fill="none" xmlns="http://www.w3.org/2000/svg">
<g clip-path="url(#clip0_277_811)">
<path opacity="0.0714286" d="M398.779 491.57C428.988 462.796 503.875 439.398 502.976 415.858C514.038 390.741 569.56 333.46 585.502 315.791C605.429 293.706 516.298 128.705 449.356 106.761C375.741 82.629 348.332 130.477 300.505 116.345C252.678 102.213 172.925 156.453 120.826 186.056C64.0014 206.548 -12.0422 305.725 32.5372 393.815" stroke="#82D0FF"/>
<path opacity="0.142857" d="M381.84 491.552C414.096 464.923 490.594 446.661 491.397 423.15C504.262 398.874 563.864 345.554 581.066 329.027C602.568 308.369 525.45 137.993 460.164 111.623C388.369 82.6227 357.532 128.441 310.777 111.14C264.021 93.8396 180.432 142.499 126.25 168.478C68.0035 185.062 -15.1256 278.736 23.0433 369.492" stroke="#82D0FF"/>
<path opacity="0.214286" d="M364.488 490.612C398.634 466.258 476.372 453.221 478.872 429.854C493.478 406.538 556.869 357.437 575.247 342.133C598.219 323.002 533.491 148.082 470.178 117.414C400.553 83.6872 366.438 127.252 320.981 106.867C275.524 86.4825 188.508 129.323 132.505 151.552C73.1218 164.148 -15.7549 253.363 15.8174 346.344" stroke="#82D0FF"/>
<path opacity="0.285714" d="M346.79 488.726C382.66 466.767 461.258 459.017 465.444 435.908C481.719 413.665 548.591 369.024 568.055 355.016C592.385 337.507 540.362 158.895 479.331 124.078C412.215 85.7887 374.989 126.888 331.052 103.519C287.115 80.1487 197.095 116.962 139.545 135.332C79.3137 143.879 -14.0045 231.592 10.8175 326.344" stroke="#82D0FF"/>
<path opacity="0.357143" d="M328.815 485.875C366.233 466.416 445.309 463.993 451.161 441.254C469.025 420.193 539.053 380.228 559.508 367.586C585.078 351.783 546.012 170.349 487.561 131.552C423.282 88.8876 383.125 127.322 340.922 101.081C298.72 74.8398 206.134 105.447 147.317 119.869C86.5315 124.325 -10.6333 210.282 7.31742 306.344" stroke="#82D0FF"/>
<path opacity="0.428571" d="M310.632 482.044C349.418 465.181 428.586 468.094 436.074 445.837C455.441 426.06 528.283 390.967 549.63 379.751C576.315 365.732 550.398 182.36 494.81 139.773C433.681 92.9402 390.789 128.522 350.527 99.5373C310.264 70.5531 215.564 94.8045 155.767 105.208C94.7227 105.551 -5.67453 191.44 5.31744 288.344" stroke="#82D0FF"/>
<path opacity="0.5" d="M292.314 477.222C332.277 463.037 411.152 471.274 420.24 449.606C441.016 431.21 516.317 401.159 538.452 391.425C566.121 379.257 553.479 194.84 501.027 148.671C443.344 97.8981 397.927 130.453 359.801 98.867C321.674 67.2807 225.321 85.0584 164.835 91.393C103.83 87.6215 0.837742 166.07 4.81743 263.344" stroke="#82D0FF"/>
<path opacity="0.571429" d="M273.931 471.404C314.877 459.966 393.075 473.486 403.719 452.513C425.802 435.587 503.195 410.726 526.01 402.52C554.53 392.263 555.224 207.7 506.162 158.173C452.208 103.708 404.486 133.078 368.681 99.0437C332.877 65.0092 235.34 76.2265 174.459 78.4613C113.791 70.5936 8.86943 143.674 5.81743 240.844" stroke="#82D0FF"/>
<path opacity="0.642857" d="M255.556 464.589C297.286 455.954 374.425 474.691 386.573 454.516C409.855 439.143 488.964 419.591 512.348 412.954C541.579 404.658 555.606 220.848 510.173 168.204C460.21 110.312 410.417 136.355 377.108 100.038C343.8 63.7212 245.555 68.3235 184.576 66.4475C124.539 54.522 18.8862 120.251 8.81741 216.844" stroke="#82D0FF"/>
<path opacity="0.714286" d="M237.261 456.782C279.571 450.992 355.275 474.855 368.868 455.576C393.237 441.83 473.675 427.684 497.514 422.648C527.314 416.353 554.606 234.191 513.023 178.688C467.295 117.651 415.672 140.238 385.023 101.816C354.373 63.3941 255.898 61.3589 195.119 55.3813C136.006 39.4561 32.354 90.7993 15.3174 186.344" stroke="#82D0FF"/>
<path opacity="0.785714" d="M219.117 447.993C261.801 445.075 335.702 473.948 350.673 455.659C376.01 443.608 457.386 434.935 481.564 431.525C511.787 427.262 552.211 247.636 514.682 189.543C473.411 125.658 420.21 144.681 392.368 104.341C364.526 64.0004 266.302 55.3377 206.018 45.2875C148.118 25.4402 45.7387 68.3127 21.8174 162.344" stroke="#82D0FF"/>
<path opacity="0.857143" d="M201.195 438.234C244.045 438.203 315.783 471.946 332.06 454.735C358.241 444.437 440.158 441.281 464.557 439.513C495.057 437.302 548.415 261.088 515.122 200.688C478.51 134.267 423.99 149.633 399.092 107.571C374.193 65.5084 276.697 50.2604 217.202 36.1867C160.797 12.5139 60.507 46.7843 29.8175 138.844" stroke="#82D0FF"/>
<path opacity="0.928571" d="M183.565 427.524C226.372 430.381 295.597 468.828 313.101 452.78C339.998 444.286 422.058 446.661 446.559 446.544C477.186 446.397 543.219 274.452 514.325 212.041C482.55 143.407 426.977 155.04 405.143 111.461C383.31 67.8819 287.017 46.1228 228.601 28.0941C173.965 0.711317 74.1257 31.7044 36.8175 121.344" stroke="#82D0FF"/>
<path d="M166.295 415.888C208.851 421.618 275.227 464.583 293.871 449.775C321.354 443.126 403.156 451.022 427.641 452.556C458.246 454.473 536.632 287.635 512.277 223.515C485.493 153.003 429.138 160.847 410.476 115.964C391.813 71.0804 297.193 42.9162 240.141 21.0204C187.54 -9.93908 101.063 -1.43852 57.3174 85.3442" stroke="#82D0FF"/>
</g>
<defs>
<clipPath id="clip0_277_811">
<rect width="599" height="362" fill="white"/>
</clipPath>
</defs>
</svg>
