<svg width="80" height="80" viewBox="0 0 80 80" fill="none" xmlns="http://www.w3.org/2000/svg">
<g clip-path="url(#clip0_97_439)">
<path d="M40 4.44446C32.9678 4.44446 26.0935 6.52975 20.2464 10.4366C14.3993 14.3435 9.84209 19.8966 7.15098 26.3935C4.45986 32.8904 3.75575 40.0395 5.12766 46.9366C6.49958 53.8337 9.88592 60.1691 14.8585 65.1416C19.831 70.1141 26.1664 73.5005 33.0635 74.8724C39.9606 76.2443 47.1096 75.5402 53.6065 72.8491C60.1035 70.1579 65.6565 65.6007 69.5634 59.7536C73.4703 53.9065 75.5556 47.0322 75.5556 40C75.5556 30.5701 71.8096 21.5264 65.1416 14.8584C58.4736 8.19048 49.4299 4.44446 40 4.44446ZM40 71.1111C33.8468 71.1111 27.8318 69.2865 22.7156 65.868C17.5994 62.4494 13.6118 57.5905 11.2571 51.9057C8.90238 46.2209 8.28628 39.9655 9.48671 33.9305C10.6871 27.8956 13.6502 22.3521 18.0012 18.0011C22.3521 13.6502 27.8956 10.6871 33.9306 9.48669C39.9655 8.28626 46.2209 8.90237 51.9057 11.2571C57.5905 13.6118 62.4494 17.5994 65.868 22.7156C69.2865 27.8318 71.1111 33.8468 71.1111 40C71.1111 48.2512 67.8334 56.1644 61.9989 61.9989C56.1644 67.8334 48.2512 71.1111 40 71.1111Z" fill="#19D921"/>
<path d="M62.2221 26.8889C61.8057 26.475 61.2425 26.2427 60.6554 26.2427C60.0683 26.2427 59.5051 26.475 59.0887 26.8889L34.4221 51.4444L21.0887 38.1111C20.6821 37.672 20.1176 37.4125 19.5196 37.3896C18.9216 37.3666 18.3389 37.5822 17.8998 37.9889C17.4608 38.3955 17.2012 38.96 17.1783 39.558C17.1554 40.156 17.371 40.7387 17.7776 41.1778L34.4221 57.7778L62.2221 30.0444C62.4304 29.8379 62.5957 29.5921 62.7085 29.3213C62.8213 29.0505 62.8794 28.76 62.8794 28.4667C62.8794 28.1733 62.8213 27.8828 62.7085 27.612C62.5957 27.3412 62.4304 27.0955 62.2221 26.8889Z" fill="#19D921"/>
</g>
<defs>
<clipPath id="clip0_97_439">
<rect width="80" height="80" fill="white"/>
</clipPath>
</defs>
</svg>
