<svg width="314" height="661" viewBox="0 0 314 661" fill="none" xmlns="http://www.w3.org/2000/svg">
<path opacity="0.0714286" d="M39.5024 118.97C8.40555 51.8444 121.773 -46.2724 182.344 -86.9402C241.53 -104.71 376.056 -136.075 440.667 -119.382C521.431 -98.5148 595.494 4.46386 620.871 56.5914C646.247 108.719 677.935 321.545 685.475 394.212C693.014 466.878 518.536 604.659 486.265 564.899C453.994 525.139 347.074 535.455 274.41 563.008C201.745 590.56 208.255 472.058 180.668 428.138C153.081 384.218 214.875 327.36 226.19 291.906C237.504 256.453 190.316 203.203 148.643 213.85C106.97 224.497 78.3735 202.876 39.5024 118.97Z" stroke="#6BC8FF"/>
<path opacity="0.142857" d="M36.6087 108.282C6.68806 40.6248 121.751 -55.4986 183.022 -95.1031C242.509 -111.837 377.562 -140.85 441.872 -123.031C522.259 -100.758 594.514 3.49755 618.977 56.06C643.44 108.623 671.409 321.97 677.679 394.757C683.949 467.543 507.093 602.258 475.521 561.941C443.949 521.624 336.865 530.073 263.731 556.352C190.597 582.632 199.174 464.262 172.357 419.868C145.541 375.473 208.318 319.702 220.249 284.451C232.181 249.2 185.929 195.135 144.077 205.053C102.224 214.972 74.0095 192.854 36.6087 108.282Z" stroke="#6BC8FF"/>
<path opacity="0.214286" d="M33.8139 97.6328C5.07861 29.4633 121.801 -64.6373 183.754 -103.166C243.525 -118.859 379.063 -145.511 443.052 -126.573C523.039 -102.9 593.463 2.60071 617.005 55.5821C640.547 108.564 664.788 322.366 669.787 395.252C674.786 468.137 495.606 599.744 464.742 558.882C433.878 518.021 326.663 524.599 253.082 549.598C179.5 574.598 190.141 456.396 164.104 411.54C138.067 366.684 201.807 312.017 214.352 276.98C226.897 241.942 181.596 187.078 139.577 196.264C97.5577 205.451 69.733 182.845 33.8139 97.6328Z" stroke="#6BC8FF"/>
<path opacity="0.285714" d="M31.1174 87.0227C3.57618 18.3621 121.923 -73.6871 184.54 -111.129C244.575 -125.777 380.557 -150.059 444.206 -130.007C523.768 -104.941 592.34 1.77228 614.954 55.1565C637.567 108.541 658.073 322.734 661.799 395.695C665.526 468.657 484.076 597.117 453.93 555.723C423.784 514.329 316.471 519.035 242.464 542.746C168.457 566.458 181.16 448.459 155.909 403.156C130.659 357.852 195.343 304.306 208.498 269.493C221.652 234.68 177.316 179.033 135.143 187.485C92.9698 195.937 65.5439 172.848 31.1174 87.0227Z" stroke="#6BC8FF"/>
<path opacity="0.357143" d="M28.5184 76.4536C2.17972 7.32273 122.115 -82.647 185.375 -118.991C245.657 -132.588 382.043 -154.493 445.332 -133.333C524.444 -106.883 591.143 1.01081 612.822 54.7816C634.5 108.552 651.265 323.071 653.717 396.086C656.169 469.101 472.505 594.375 443.086 552.461C413.667 510.547 306.289 513.38 231.879 535.796C157.47 558.212 172.23 440.454 147.774 394.716C123.318 348.979 188.927 296.57 202.687 261.992C216.447 227.414 173.089 171.002 130.775 178.716C88.4606 186.431 61.4418 162.867 28.5184 76.4536Z" stroke="#6BC8FF"/>
<path opacity="0.428571" d="M26.0163 65.9272C0.888058 -3.65277 122.376 -91.5156 186.26 -126.75C246.77 -139.293 383.517 -158.815 446.428 -136.553C525.066 -108.727 589.872 0.315094 610.609 54.456C631.346 108.597 644.364 323.375 645.541 396.422C646.719 469.469 460.897 591.519 432.214 549.098C403.531 506.677 296.119 507.635 221.329 528.749C146.54 549.863 163.353 432.38 139.699 386.223C116.045 340.066 182.559 288.81 196.921 254.477C211.282 220.144 168.915 162.984 126.472 169.959C84.03 176.934 57.4265 152.902 26.0163 65.9272Z" stroke="#6BC8FF"/>
<path opacity="0.5" d="M23.6102 55.4452C-0.299807 -14.5627 122.703 -100.292 187.193 -134.406C247.912 -145.891 384.979 -163.023 447.492 -139.667C525.632 -110.473 588.525 -0.316267 608.314 54.1783C628.103 108.673 637.37 323.646 637.273 396.702C637.176 469.759 449.252 588.546 421.313 545.631C393.375 502.716 285.963 501.8 210.816 521.605C135.67 541.411 154.531 424.239 131.686 377.676C108.841 331.113 176.239 281.026 191.198 246.949C206.156 212.872 164.793 154.981 122.235 161.214C79.6777 167.447 53.4978 142.955 23.6102 55.4452Z" stroke="#6BC8FF"/>
<path opacity="0.571429" d="M21.2994 45.0094C-1.38518 -25.4052 123.095 -108.975 188.17 -141.958C249.081 -152.382 386.426 -167.119 448.521 -142.676C526.14 -112.122 587.102 -0.884457 605.936 53.9472C624.771 108.779 630.285 323.881 628.913 396.924C627.541 469.968 437.572 585.458 410.387 542.062C383.202 498.665 275.822 495.874 200.341 514.366C124.861 532.857 145.764 416.032 123.735 369.077C101.706 322.123 169.968 273.219 185.519 239.409C201.07 205.598 160.724 146.994 118.064 152.484C75.4037 157.973 49.6552 133.028 21.2994 45.0094Z" stroke="#6BC8FF"/>
<path opacity="0.642857" d="M19.0831 34.6212C-2.36915 -36.1785 123.55 -117.563 189.191 -149.405C250.275 -158.764 387.856 -171.102 449.516 -145.579C526.589 -113.675 585.6 -1.39101 603.475 53.761C621.35 108.913 623.109 324.078 620.462 397.087C617.815 470.095 425.86 582.252 399.437 538.388C373.013 494.524 265.698 489.86 189.906 507.031C114.114 524.202 137.053 407.759 115.847 360.428C94.6412 313.096 163.746 265.391 179.885 231.857C196.024 198.323 156.706 139.024 113.957 143.768C71.2076 148.512 45.8984 123.121 19.0831 34.6212Z" stroke="#6BC8FF"/>
<path opacity="0.714286" d="M16.9604 24.2826C-3.25296 -46.8807 124.068 -126.055 190.255 -156.747C251.492 -165.039 389.268 -174.974 450.472 -148.378C526.978 -115.134 584.02 -1.83706 600.929 53.6185C617.839 109.074 615.843 324.237 611.922 397.189C608.002 470.14 414.118 578.929 388.464 534.611C362.81 490.293 255.593 483.756 179.513 499.601C103.433 515.447 128.4 399.423 108.024 351.728C87.647 304.033 157.574 257.542 174.296 224.295C191.017 191.047 152.74 131.071 109.915 135.068C67.0893 139.065 42.2271 113.237 16.9604 24.2826Z" stroke="#6BC8FF"/>
<path opacity="0.785714" d="M14.9304 13.995C-4.0379 -57.5103 124.645 -134.45 191.358 -163.982C252.73 -171.204 390.659 -178.733 451.389 -151.074C527.303 -116.499 582.359 -2.22414 598.298 53.5181C614.237 109.26 608.487 324.356 603.294 397.228C598.1 470.099 402.348 575.489 377.471 530.729C352.594 485.97 245.508 477.563 169.163 492.078C92.8178 506.594 119.806 391.023 100.265 342.98C80.7239 294.937 151.452 249.673 168.751 216.722C186.05 183.772 148.826 123.137 105.937 126.386C63.0485 129.635 38.6408 103.377 14.9304 13.995Z" stroke="#6BC8FF"/>
<path opacity="0.857143" d="M12.9922 3.75998C-4.72523 -68.0654 125.281 -142.748 192.499 -171.111C253.988 -177.261 392.027 -182.382 452.266 -153.666C527.564 -117.772 580.618 -2.55371 595.582 53.4582C610.545 109.47 601.042 324.433 594.577 397.203C588.113 469.973 390.551 571.929 366.459 526.743C342.368 481.556 235.444 471.281 158.857 484.462C82.2707 497.643 111.272 382.561 92.5723 334.184C73.8726 285.807 145.38 241.785 163.251 209.141C181.123 176.498 144.963 115.222 102.024 117.722C59.0848 120.222 35.1391 93.5417 12.9922 3.75998Z" stroke="#6BC8FF"/>
<path opacity="0.928571" d="M11.145 -6.42084C-5.31629 -78.5445 125.973 -150.947 193.676 -178.133C255.263 -183.208 393.37 -185.919 453.099 -156.157C527.76 -118.954 578.794 -2.82714 592.778 53.4374C606.762 109.702 593.508 324.466 585.775 397.112C578.042 469.758 378.73 568.251 355.431 522.651C332.132 477.051 225.403 464.912 148.598 476.754C71.7934 488.596 102.799 374.038 84.9462 325.342C67.0937 276.646 139.358 233.878 157.797 201.551C176.236 169.225 141.15 107.328 98.1739 109.078C55.1979 110.828 31.7215 83.7338 11.145 -6.42084Z" stroke="#6BC8FF"/>
<path d="M9.38764 -16.5458C-5.81236 -88.9458 126.721 -159.046 194.888 -185.046C256.554 -189.046 394.688 -189.346 453.888 -158.546C527.888 -120.046 576.888 -3.04576 589.888 53.4542C602.888 109.954 585.888 324.454 576.888 396.954C567.888 469.454 366.888 564.454 344.388 518.454C321.888 472.454 215.388 458.454 138.388 468.954C61.3876 479.454 94.3876 365.454 77.3876 316.454C60.3876 267.454 133.388 225.954 152.388 193.954C171.388 161.954 137.388 99.4543 94.3876 100.454C51.3876 101.454 28.3876 73.9542 9.38764 -16.5458Z" stroke="#6BC8FF"/>
</svg>
