<svg width="375" height="570" viewBox="0 0 375 570" fill="none" xmlns="http://www.w3.org/2000/svg">
<path opacity="0.111111" d="M-722.937 175.237C-582.591 265.749 -496.7 334.405 -484.233 356.769C-481.734 385.403 -330.315 356.207 -247.773 418.744C-183.733 467.263 -104.101 573.924 26.5552 535.614C99.9828 514.084 178.058 562.147 222.303 541.95C303.461 504.902 325.543 435.346 390.125 384.311C431.045 341.969 611.438 292.155 715.604 268.944" stroke="#82D0FF"/>
<path opacity="0.222222" d="M-725.847 132.805C-589.712 229.661 -507.129 302.091 -495.825 324.899C-494.891 353.423 -341.023 332.124 -261.47 398.316C-199.749 449.67 -125.555 559.472 7.93866 528.086C82.9605 510.447 158.82 562.058 204.423 544.266C288.075 511.628 314.113 443.766 381.867 396.418C425.348 356.497 609.487 316.216 715.511 298.464" stroke="#82D0FF"/>
<path opacity="0.333333" d="M-726.782 90.5989C-595.231 193.535 -516.182 269.539 -506.073 292.73C-506.706 321.065 -350.81 307.722 -274.464 377.387C-215.231 431.436 -146.678 544.079 -10.7141 519.702C65.6964 506.002 139.132 561.021 185.969 545.681C271.884 517.543 301.807 451.56 372.547 408.03C418.47 370.638 605.852 340.001 713.443 327.756" stroke="#82D0FF"/>
<path opacity="0.444444" d="M-725.744 48.7186C-599.136 157.452 -523.838 236.823 -514.952 260.333C-517.15 288.4 -359.653 283.05 -286.724 355.997C-230.142 412.592 -167.418 527.768 -29.3554 510.466C48.2343 500.744 119.044 559.019 166.987 546.174C254.93 522.614 288.656 458.69 362.189 419.098C410.428 384.337 600.538 363.428 709.401 356.724" stroke="#82D0FF"/>
<path opacity="0.555556" d="M-722.738 7.26025C-601.422 121.493 -530.082 204.013 -522.442 227.777C-526.2 255.501 -367.533 258.157 -298.221 334.187C-244.445 393.174 -187.721 510.565 -47.9388 500.388C30.6175 494.668 98.6081 556.04 147.525 545.726C237.254 526.807 274.692 465.118 350.815 429.572C401.237 397.538 593.556 386.414 703.392 385.27" stroke="#82D0FF"/>
<path opacity="0.666667" d="M-717.779 -33.6799C-602.086 85.7396 -534.899 171.182 -528.526 195.135C-533.833 222.439 -374.433 233.096 -308.927 311.999C-258.104 373.216 -207.537 492.501 -66.4175 489.475C12.89 487.775 77.8749 552.076 127.632 544.32C218.902 530.094 259.948 470.81 338.453 439.407C390.921 410.188 584.92 408.879 695.429 413.297" stroke="#82D0FF"/>
<path opacity="0.777778" d="M-710.882 -74.0077C-601.131 50.2709 -538.28 138.402 -533.193 162.479C-540.034 189.288 -380.337 207.915 -318.817 289.475C-271.086 352.754 -226.814 473.608 -84.7447 477.742C-4.90328 480.065 56.8977 547.118 107.358 541.942C199.919 532.449 244.461 475.731 325.132 448.557C379.503 422.233 574.65 430.743 685.529 440.712" stroke="#82D0FF"/>
</svg>
